<svg xmlns="http://www.w3.org/2000/svg" version="1.1" xmlns:xlink="http://www.w3.org/1999/xlink" xmlns:svgjs="http://svgjs.dev/svgjs" width="1440" height="560" preserveAspectRatio="none" viewBox="0 0 1440 560"><g mask="url(&quot;#SvgjsMask1004&quot;)" fill="none"><rect width="1440" height="560" x="0" y="0" fill="#0e2a47"></rect><g transform="translate(0, 0)" stroke-linecap="round"><path d="M260 243.84 L260 316.16" stroke-width="15" stroke="rgba(185, 14, 68, 1)"></path><path d="M280 117.09 L280 442.91" stroke-width="15" stroke="rgba(185, 14, 68, 1)"></path><path d="M300 110.73 L300 449.27" stroke-width="15" stroke="rgba(185, 14, 68, 1)"></path><path d="M320 124.43 L320 435.57" stroke-width="15" stroke="#3a7cc3"></path><path d="M340 168.12 L340 391.88" stroke-width="15" stroke="rgba(185, 14, 68, 1)"></path><path d="M360 194 L360 366" stroke-width="15" stroke="#3a7cc3"></path><path d="M380 208.39 L380 351.61" stroke-width="15" stroke="#3a7cc3"></path><path d="M400 260.25 L400 299.75" stroke-width="15" stroke="#3a7cc3"></path><path d="M420 199.92 L420 360.08" stroke-width="15" stroke="rgba(185, 14, 68, 1)"></path><path d="M440 138.53 L440 421.47" stroke-width="15" stroke="#3a7cc3"></path><path d="M460 243.19 L460 316.81" stroke-width="15" stroke="#3a7cc3"></path><path d="M480 179.24 L480 380.76" stroke-width="15" stroke="rgba(185, 14, 68, 1)"></path><path d="M500 260.49 L500 299.51" stroke-width="15" stroke="rgba(185, 14, 68, 1)"></path><path d="M520 115.5 L520 444.5" stroke-width="15" stroke="#3a7cc3"></path><path d="M540 172.93 L540 387.07" stroke-width="15" stroke="rgba(185, 14, 68, 1)"></path><path d="M560 174.42 L560 385.58" stroke-width="15" stroke="rgba(185, 14, 68, 1)"></path><path d="M580 109.64 L580 450.36" stroke-width="15" stroke="#3a7cc3"></path><path d="M600 109.68 L600 450.32" stroke-width="15" stroke="#3a7cc3"></path><path d="M620 246.91 L620 313.1" stroke-width="15" stroke="#3a7cc3"></path><path d="M640 140.28 L640 419.72" stroke-width="15" stroke="rgba(185, 14, 68, 1)"></path><path d="M660 203.76 L660 356.24" stroke-width="15" stroke="rgba(185, 14, 68, 1)"></path><path d="M680 160.58 L680 399.42" stroke-width="15" stroke="rgba(185, 14, 68, 1)"></path><path d="M700 174.42 L700 385.58" stroke-width="15" stroke="rgba(185, 14, 68, 1)"></path><path d="M720 158.21 L720 401.79" stroke-width="15" stroke="#3a7cc3"></path><path d="M740 214.95 L740 345.05" stroke-width="15" stroke="#3a7cc3"></path><path d="M760 251.5 L760 308.5" stroke-width="15" stroke="rgba(185, 14, 68, 1)"></path><path d="M780 160.01 L780 399.99" stroke-width="15" stroke="rgba(185, 14, 68, 1)"></path><path d="M800 179.58 L800 380.42" stroke-width="15" stroke="rgba(185, 14, 68, 1)"></path><path d="M820 200.81 L820 359.19" stroke-width="15" stroke="rgba(185, 14, 68, 1)"></path><path d="M840 192.55 L840 367.45" stroke-width="15" stroke="#3a7cc3"></path><path d="M860 155.82 L860 404.18" stroke-width="15" stroke="rgba(185, 14, 68, 1)"></path><path d="M880 224.34 L880 335.65" stroke-width="15" stroke="rgba(185, 14, 68, 1)"></path><path d="M900 239.43 L900 320.57" stroke-width="15" stroke="rgba(185, 14, 68, 1)"></path><path d="M920 228.28 L920 331.72" stroke-width="15" stroke="rgba(185, 14, 68, 1)"></path><path d="M940 190.29 L940 369.71" stroke-width="15" stroke="#3a7cc3"></path><path d="M960 135.88 L960 424.12" stroke-width="15" stroke="rgba(185, 14, 68, 1)"></path><path d="M980 206.64 L980 353.36" stroke-width="15" stroke="#3a7cc3"></path><path d="M1000 113.01 L1000 446.99" stroke-width="15" stroke="rgba(185, 14, 68, 1)"></path><path d="M1020 258.07 L1020 301.93" stroke-width="15" stroke="rgba(185, 14, 68, 1)"></path><path d="M1040 119.4 L1040 440.6" stroke-width="15" stroke="rgba(185, 14, 68, 1)"></path><path d="M1060 177.1 L1060 382.9" stroke-width="15" stroke="#3a7cc3"></path><path d="M1080 141.75 L1080 418.25" stroke-width="15" stroke="rgba(185, 14, 68, 1)"></path><path d="M1100 190.3 L1100 369.7" stroke-width="15" stroke="rgba(185, 14, 68, 1)"></path><path d="M1120 250.53 L1120 309.47" stroke-width="15" stroke="rgba(185, 14, 68, 1)"></path><path d="M1140 245.76 L1140 314.24" stroke-width="15" stroke="#3a7cc3"></path><path d="M1160 193.03 L1160 366.98" stroke-width="15" stroke="#3a7cc3"></path><path d="M1180 155.84 L1180 404.16" stroke-width="15" stroke="#3a7cc3"></path></g></g><defs><mask id="SvgjsMask1004"><rect width="1440" height="560" fill="#ffffff"></rect></mask></defs></svg>